<svg xmlns="http://www.w3.org/2000/svg" viewBox="0 0 48 48" fill="none"><defs>
<linearGradient id="blue" x1="0" y1="0" x2="1" y2="1"><stop stop-color="#85c5ff"/><stop offset=".48" stop-color="#438fef"/><stop offset="1" stop-color="#2758b9"/></linearGradient>
<linearGradient id="yellow" x1="0" y1="0" x2="1" y2="1"><stop stop-color="#fff7af"/><stop offset=".5" stop-color="#ffe65f"/><stop offset="1" stop-color="#edbc33"/></linearGradient>
<linearGradient id="silver" x1="0" y1="0" x2="1" y2="1"><stop stop-color="#fff"/><stop offset=".55" stop-color="#e5edf7"/><stop offset="1" stop-color="#a9bcd1"/></linearGradient>
<linearGradient id="pink" x1="0" y1="0" x2="1" y2="1"><stop stop-color="#ffc2d0"/><stop offset=".5" stop-color="#f28daa"/><stop offset="1" stop-color="#d4537a"/></linearGradient>
<linearGradient id="green" x1="0" y1="0" x2="1" y2="1"><stop stop-color="#b0f0d8"/><stop offset=".5" stop-color="#5bc5a5"/><stop offset="1" stop-color="#269d85"/></linearGradient>
<linearGradient id="red" x1="0" y1="0" x2="1" y2="1"><stop stop-color="#ffaca7"/><stop offset=".5" stop-color="#ee696d"/><stop offset="1" stop-color="#c63951"/></linearGradient>
<linearGradient id="dark" x1="0" y1="0" x2="1" y2="1"><stop stop-color="#7995b8"/><stop offset=".5" stop-color="#405c80"/><stop offset="1" stop-color="#253d5c"/></linearGradient>
</defs><g stroke="#46617f" stroke-width="1.3" stroke-linecap="round" stroke-linejoin="round"><circle cx="37" cy="10" r="6" fill="#ff858c" opacity=".18" stroke="none"/><path d="m28 19 6-6" stroke="#ed646c" stroke-width="2"/><g transform="rotate(42 24 24)"><rect x="19" y="17" width="10" height="26" rx="3" fill="url(#dark)"/><path d="M19 18v-4h10v4" fill="url(#silver)"/><path d="M21 22v14" stroke="#abc5e6" stroke-width="1.8"/><rect x="23" y="22" width="4" height="6" rx="2" fill="url(#red)"/></g><circle cx="37" cy="10" r="2.5" fill="#fa5b65" stroke="#bc3b50"/><path d="M37 2v3m6 5h3M42 5l2-2" stroke="#e86c76"/></g></svg>